<svg xmlns="http://www.w3.org/2000/svg" width="266.9" height="86.6" viewBox="0 0 266.9 86.6">
  <g id="sputniklogo_otdelno" transform="translate(-65.3 -32.2)">
    <path id="Path_49" data-name="Path 49" d="M108.7,84.6V77.4H106a3.3,3.3,0,1,1,0-6.6h6a16.5,16.5,0,0,1-3.3-9.8,15.862,15.862,0,0,1,3.3-9.8h-6a3.3,3.3,0,1,1,0-6.6h19.1a16.4,16.4,0,0,1,0,32.8h-9.7v7.2a3.35,3.35,0,0,1-6.7,0Zm40.8-10.9c-2.7-2.6-4-6.1-4-10.5V47.7a3.329,3.329,0,0,1,3.3-3.3,3.244,3.244,0,0,1,3.3,3.2h0V62.4a9.246,9.246,0,0,0,2.2,6.6,8.452,8.452,0,0,0,11.8,0,9.718,9.718,0,0,0,2.2-6.6V47.6h0a3.309,3.309,0,0,1,3.3-3.2,3.244,3.244,0,0,1,3.3,3.2h0V63.3c0,4.4-1.3,7.9-4,10.5s-6.2,3.9-10.7,3.9S152.2,76.4,149.5,73.7Zm161.8,1.7h0L296.5,39.2c-.1-.1-.1-.3-.2-.4l.1.1h0l-.3-1.2a3.543,3.543,0,0,1,3.5-3.5,3.453,3.453,0,0,1,3.3,2.4l11.4,29,11-28.7a3.5,3.5,0,0,1,6.9.8l-.2,1h0l.1-.2a3.553,3.553,0,0,1-.4.9L317.5,75.1a3.421,3.421,0,0,1-3.3,2.5A3.3,3.3,0,0,1,311.3,75.4ZM69.1,73.8a11.97,11.97,0,0,1-3.6-5.3h0a5.019,5.019,0,0,1-.2-1.2,3.487,3.487,0,0,1,6.8-1.1h0A6.307,6.307,0,0,0,74.2,69a9.661,9.661,0,0,0,6.3,1.9,10.262,10.262,0,0,0,5.9-1.7,5.183,5.183,0,0,0,2.4-4.5,4.869,4.869,0,0,0-.1-1.2,2.994,2.994,0,0,0-.4-1,5.547,5.547,0,0,0-.6-.8,5.716,5.716,0,0,0-.8-.7,3.49,3.49,0,0,1-.9-.6,3.527,3.527,0,0,0-1.2-.5c-.5-.2-.9-.3-1.2-.4s-.8-.2-1.4-.4-1.1-.3-1.4-.4-.8-.2-1.5-.4a51.928,51.928,0,0,1-7.7-2.4,9.93,9.93,0,0,1-6-7.9,9.15,9.15,0,0,1-.1-1.7,10.435,10.435,0,0,1,4-8.8c2.6-2.1,6.2-3.2,10.7-3.2s8.1,1.1,10.6,3.4a11.106,11.106,0,0,1,3.4,5.8,2.2,2.2,0,0,1,.1.8,3.372,3.372,0,0,1-3.4,3.4,3.549,3.549,0,0,1-3.3-2.4h0a5.538,5.538,0,0,0-2-3A9.1,9.1,0,0,0,80,40.6,10.436,10.436,0,0,0,74.5,42a4.251,4.251,0,0,0-2.2,3.9,4.671,4.671,0,0,0,.3,1.7,3.316,3.316,0,0,0,1,1.4A12.132,12.132,0,0,0,75,50a10.266,10.266,0,0,0,2,.8,18.869,18.869,0,0,0,2.1.6,20.755,20.755,0,0,0,2.4.6,42.147,42.147,0,0,1,7.8,2.5c3.6,1.8,5.7,4.4,6.3,8a12.75,12.75,0,0,1,.1,2,11.826,11.826,0,0,1-2.1,7,12.563,12.563,0,0,1-5.5,4.4,19.207,19.207,0,0,1-7.7,1.4C75.8,77.5,72,76.3,69.1,73.8Zm208.6,1.8h0l-8.8-12.5h-4V73.6h0a3.3,3.3,0,1,1-6.6,0h0V36.1h0a3.3,3.3,0,1,1,6.6,0h0V57H269l7.9-11.4h0a3.419,3.419,0,0,1,2.6-1.4,3.159,3.159,0,0,1,3.2,3.2,2.792,2.792,0,0,1-.6,1.8h0l-7.6,10.7,8.3,11.5h0a3.227,3.227,0,0,1,.8,2.1,3.329,3.329,0,0,1-3.3,3.3A2.742,2.742,0,0,1,277.7,75.6Zm-79.8,1.3h-1.7a11.322,11.322,0,0,1-8.4-3.1,11.733,11.733,0,0,1-3.1-8.4V50.3H179V49l11.3-12h1.1v7.5H198a2.8,2.8,0,1,1,0,5.6h-6.6V64.7a6.054,6.054,0,0,0,1.6,4.5,6.143,6.143,0,0,0,4.5,1.6h.7a3.076,3.076,0,0,1,3,3,3.009,3.009,0,0,1-3,3h-.1C198,76.9,198,76.9,197.9,76.9Zm9.7-3.2h0V44.5h4.6l1.3,4.5a12.36,12.36,0,0,1,4.8-3.9,15,15,0,0,1,6.4-1.4,11.341,11.341,0,0,1,8.9,3.8,14.349,14.349,0,0,1,3.3,9.8V73.6h0a3.3,3.3,0,0,1-6.6,0h0V58.8c0-2.9-.6-5.2-1.9-6.7a6.873,6.873,0,0,0-5.5-2.3,7.733,7.733,0,0,0-6.2,2.8,10.259,10.259,0,0,0-2.4,7V73.7h0a3.354,3.354,0,0,1-6.7,0Zm36.2.2h0V47.6h0a3.315,3.315,0,0,1,6.6,0h0V74h0a3.35,3.35,0,0,1-3.3,3A3.527,3.527,0,0,1,243.8,73.9ZM135,61a9.8,9.8,0,1,0-9.8,9.8A9.816,9.816,0,0,0,135,61Zm-37.7.4a3.329,3.329,0,0,1,3.3-3.3h2.6a3.3,3.3,0,1,1,0,6.6h-2.6A3.329,3.329,0,0,1,97.3,61.4ZM243.1,36.1a3.9,3.9,0,0,1,3.9-3.9,3.9,3.9,0,0,1,0,7.8A3.9,3.9,0,0,1,243.1,36.1Z" fill="#fff" fill-rule="evenodd"/>
    <g id="Group_6" data-name="Group 6">
      <path id="Path_50" data-name="Path 50" d="M72.2,96.8H69.8v6.7H68.5V96.8H66V95.7h6.2Z" fill="#fff"/>
      <path id="Path_51" data-name="Path 51" d="M80.8,103.6H79.4v-3.5H75.9v3.5H74.5V95.8h1.4V99h3.5V95.7h1.4Z" fill="#fff"/>
      <path id="Path_52" data-name="Path 52" d="M88.3,100.1H85.1v2.4h3.8v1.1H83.8V95.8h5.1v1.1H85.2V99h3.2v1.1Z" fill="#fff"/>
      <path id="Path_53" data-name="Path 53" d="M99.8,100.3H96.7v3.3H95.3V95.8h5v1.1H96.7v2.3h3.1Z" fill="#fff"/>
      <path id="Path_54" data-name="Path 54" d="M104.1,103.6h-1.4V95.8h1.4Z" fill="#fff"/>
      <path id="Path_55" data-name="Path 55" d="M110,100.6h-1.5v3h-1.4V95.8h2.8a3.281,3.281,0,0,1,2.1.6,2.139,2.139,0,0,1,.7,1.8,1.844,1.844,0,0,1-.4,1.3,2.258,2.258,0,0,1-1.1.8l1.8,3.3v.1h-1.5Zm-1.5-1.1h1.4a1.8,1.8,0,0,0,1.1-.3.975.975,0,0,0,.4-.9,1.284,1.284,0,0,0-.4-1,2.3,2.3,0,0,0-1.1-.4h-1.4Z" fill="#fff"/>
      <path id="Path_56" data-name="Path 56" d="M119.4,101.6a.909.909,0,0,0-.4-.8,3.963,3.963,0,0,0-1.3-.6,11.64,11.64,0,0,1-1.5-.6,1.992,1.992,0,0,1-1.1-1.8,2.254,2.254,0,0,1,.8-1.6,2.671,2.671,0,0,1,2-.6,4.012,4.012,0,0,1,1.5.3,2.189,2.189,0,0,1,1,.9,2.843,2.843,0,0,1,.4,1.2h-1.4a1.284,1.284,0,0,0-.4-1,1.8,1.8,0,0,0-1.1-.3,1.493,1.493,0,0,0-1,.3,1.235,1.235,0,0,0-.4.8.755.755,0,0,0,.4.7,5.349,5.349,0,0,0,1.3.6,11.64,11.64,0,0,1,1.5.6,2.047,2.047,0,0,1,.8.8,1.8,1.8,0,0,1,.3,1.1,1.865,1.865,0,0,1-.7,1.6,3.173,3.173,0,0,1-2,.6,4.145,4.145,0,0,1-1.6-.3,2.445,2.445,0,0,1-1.1-.9,2.01,2.01,0,0,1-.4-1.3h1.4a1.159,1.159,0,0,0,.4,1,2.226,2.226,0,0,0,1.3.4,1.8,1.8,0,0,0,1.1-.3C119.5,102.2,119.4,101.9,119.4,101.6Z" fill="#fff"/>
      <path id="Path_57" data-name="Path 57" d="M128.9,96.8h-2.4v6.7h-1.3V96.8h-2.4V95.7H129v1.1Z" fill="#fff"/>
      <path id="Path_58" data-name="Path 58" d="M137.8,100.6h-1.5v3H135V95.8h2.8a3.281,3.281,0,0,1,2.1.6,2.139,2.139,0,0,1,.7,1.8,1.844,1.844,0,0,1-.4,1.3,2.258,2.258,0,0,1-1.1.8l1.8,3.3v.1h-1.5Zm-1.5-1.1h1.4a1.8,1.8,0,0,0,1.1-.3.975.975,0,0,0,.4-.9,1.284,1.284,0,0,0-.4-1,2.3,2.3,0,0,0-1.1-.4h-1.4Z" fill="#fff"/>
      <path id="Path_59" data-name="Path 59" d="M147.7,100.1h-3.2v2.4h3.8v1.1h-5.1V95.8h5.1v1.1h-3.7V99h3.2v1.1Z" fill="#fff"/>
      <path id="Path_60" data-name="Path 60" d="M156.7,102.6a2.55,2.55,0,0,1-1.2.8,4.671,4.671,0,0,1-1.7.3,3,3,0,0,1-2.9-1.7,4.058,4.058,0,0,1-.4-1.9v-.6a4.655,4.655,0,0,1,.8-2.8,2.965,2.965,0,0,1,2.4-1,3.281,3.281,0,0,1,2.1.6,2.854,2.854,0,0,1,.9,1.9h-1.3a1.537,1.537,0,0,0-1.6-1.4,1.513,1.513,0,0,0-1.4.7,3.312,3.312,0,0,0-.5,1.9v.6a3.939,3.939,0,0,0,.5,2,1.8,1.8,0,0,0,1.5.7,2.07,2.07,0,0,0,1.5-.5v-1.5h-1.6v-1h3v2.9Z" fill="#fff"/>
      <path id="Path_61" data-name="Path 61" d="M160.9,103.6h-1.4V95.8h1.4Z" fill="#fff"/>
      <path id="Path_62" data-name="Path 62" d="M168,101.6a.91.91,0,0,0-.4-.8,3.963,3.963,0,0,0-1.3-.6,11.639,11.639,0,0,1-1.5-.6,1.992,1.992,0,0,1-1.1-1.8,2.254,2.254,0,0,1,.8-1.6,2.671,2.671,0,0,1,2-.6,4.012,4.012,0,0,1,1.5.3,2.189,2.189,0,0,1,1,.9,2.843,2.843,0,0,1,.4,1.2H168a1.284,1.284,0,0,0-.4-1,1.8,1.8,0,0,0-1.1-.3,1.493,1.493,0,0,0-1,.3,1.234,1.234,0,0,0-.4.8.755.755,0,0,0,.4.7,5.349,5.349,0,0,0,1.3.6,11.639,11.639,0,0,1,1.5.6,2.047,2.047,0,0,1,.8.8,1.8,1.8,0,0,1,.3,1.1,1.865,1.865,0,0,1-.7,1.6,3.173,3.173,0,0,1-2,.6,4.145,4.145,0,0,1-1.6-.3,2.445,2.445,0,0,1-1.1-.9,2.01,2.01,0,0,1-.4-1.3H165a1.16,1.16,0,0,0,.4,1,2.226,2.226,0,0,0,1.3.4,1.8,1.8,0,0,0,1.1-.3C168.1,102.2,168,101.9,168,101.6Z" fill="#fff"/>
      <path id="Path_63" data-name="Path 63" d="M177.5,96.8h-2.4v6.7h-1.3V96.8h-2.4V95.7h6.2v1.1Z" fill="#fff"/>
      <path id="Path_64" data-name="Path 64" d="M184.5,100.1h-3.2v2.4h3.8v1.1H180V95.8h5.1v1.1h-3.7V99h3.2v1.1Z" fill="#fff"/>
      <path id="Path_65" data-name="Path 65" d="M190.3,100.6h-1.5v3h-1.4V95.8h2.8a3.281,3.281,0,0,1,2.1.6,2.139,2.139,0,0,1,.7,1.8,1.844,1.844,0,0,1-.4,1.3,2.258,2.258,0,0,1-1.1.8l1.8,3.3v.1h-1.5Zm-1.5-1.1h1.4a1.8,1.8,0,0,0,1.1-.3.975.975,0,0,0,.4-.9,1.284,1.284,0,0,0-.4-1,2.3,2.3,0,0,0-1.1-.4h-1.4Z" fill="#fff"/>
      <path id="Path_66" data-name="Path 66" d="M200.2,100.1H197v2.4h3.8v1.1h-5.1V95.8h5.1v1.1H197V99h3.2Z" fill="#fff"/>
      <path id="Path_67" data-name="Path 67" d="M203.1,103.6V95.8h2.3a3.453,3.453,0,0,1,1.8.5,3.039,3.039,0,0,1,1.2,1.3,4.058,4.058,0,0,1,.4,1.9v.4a4.477,4.477,0,0,1-.4,2,2.735,2.735,0,0,1-1.3,1.3,3.83,3.83,0,0,1-1.9.5h-2.1Zm1.4-6.8v5.6h.9a1.753,1.753,0,0,0,1.6-.7,2.707,2.707,0,0,0,.6-1.9v-.4a2.707,2.707,0,0,0-.6-1.9,2.175,2.175,0,0,0-1.6-.7Z" fill="#fff"/>
      <path id="Path_68" data-name="Path 68" d="M221.7,101a3.373,3.373,0,0,1-.9,2,2.971,2.971,0,0,1-2.1.7,2.726,2.726,0,0,1-1.6-.4A2.85,2.85,0,0,1,216,102a3.807,3.807,0,0,1-.4-1.9v-.7a3.807,3.807,0,0,1,.4-1.9,2.85,2.85,0,0,1,1.1-1.3,3.371,3.371,0,0,1,1.7-.5,2.817,2.817,0,0,1,2.1.7,3.117,3.117,0,0,1,.9,2h-1.4c-.1-.6-.2-1-.5-1.2a1.9,1.9,0,0,0-1.2-.4,1.816,1.816,0,0,0-1.4.6,3.312,3.312,0,0,0-.5,1.9v.7a3.312,3.312,0,0,0,.5,1.9,1.561,1.561,0,0,0,1.3.7,1.594,1.594,0,0,0,1.2-.4c.3-.2.4-.6.5-1.2h1.4Z" fill="#fff"/>
      <path id="Path_69" data-name="Path 69" d="M230.5,99.9a4.212,4.212,0,0,1-.4,2,2.85,2.85,0,0,1-1.1,1.3,3.14,3.14,0,0,1-3.4,0,2.765,2.765,0,0,1-1.1-1.3,4.211,4.211,0,0,1-.4-2v-.4a4.212,4.212,0,0,1,.4-2,3.611,3.611,0,0,1,1.1-1.3,3.1,3.1,0,0,1,1.7-.5,3.371,3.371,0,0,1,1.7.5,2.365,2.365,0,0,1,1.1,1.3,4.211,4.211,0,0,1,.4,2Zm-1.4-.4a3.677,3.677,0,0,0-.5-2,1.513,1.513,0,0,0-1.4-.7,1.622,1.622,0,0,0-1.4.7,2.981,2.981,0,0,0-.5,2v.5a3.677,3.677,0,0,0,.5,2,1.75,1.75,0,0,0,2.8,0,3.677,3.677,0,0,0,.5-2Z" fill="#fff"/>
      <path id="Path_70" data-name="Path 70" d="M235.8,101.9l2-6.1h1.5l-2.8,7.8h-1.3l-2.8-7.8h1.5Z" fill="#fff"/>
      <path id="Path_71" data-name="Path 71" d="M242.9,103.6h-1.4V95.8h1.4Z" fill="#fff"/>
      <path id="Path_72" data-name="Path 72" d="M245.9,103.6V95.8h2.3a3.453,3.453,0,0,1,1.8.5,3.039,3.039,0,0,1,1.2,1.3,4.058,4.058,0,0,1,.4,1.9v.4a4.477,4.477,0,0,1-.4,2,2.735,2.735,0,0,1-1.3,1.3,3.83,3.83,0,0,1-1.9.5h-2.1Zm1.3-6.8v5.6h.9a1.753,1.753,0,0,0,1.6-.7,2.707,2.707,0,0,0,.6-1.9v-.4a2.707,2.707,0,0,0-.6-1.9,2.175,2.175,0,0,0-1.6-.7Z" fill="#fff"/>
      <path id="Path_73" data-name="Path 73" d="M256.8,100.8H254V99.7h2.8Z" fill="#fff"/>
      <path id="Path_74" data-name="Path 74" d="M262.6,103.6h-1.3V97.3l-1.9.7V96.9l3.1-1.1h.2v7.8Z" fill="#fff"/>
      <path id="Path_75" data-name="Path 75" d="M270.4,100.3a1.8,1.8,0,0,1-1.5.7,1.865,1.865,0,0,1-1.6-.7,2.883,2.883,0,0,1-.6-1.9A3.194,3.194,0,0,1,267,97a2.837,2.837,0,0,1,.9-1,2.768,2.768,0,0,1,1.3-.3,2.323,2.323,0,0,1,1.9.9,3.612,3.612,0,0,1,.7,2.4v.4a4.4,4.4,0,0,1-1,3.2,3.841,3.841,0,0,1-2.9,1.1h-.2v-1.1h.2a2.445,2.445,0,0,0,1.8-.6A2.938,2.938,0,0,0,270.4,100.3Zm-1.3-.3a1.445,1.445,0,0,0,.7-.2,2.651,2.651,0,0,0,.5-.6v-.5a2.116,2.116,0,0,0-.4-1.4.874.874,0,0,0-.9-.5,1.05,1.05,0,0,0-.9.5,2.55,2.55,0,0,0,0,2.4C268.3,100,268.7,100,269.1,100Z" fill="#fff"/>
      <path id="Path_76" data-name="Path 76" d="M281.3,101.9l2-6.1h1.5l-2.8,7.8h-1.3l-2.8-7.8h1.5Z" fill="#fff"/>
      <path id="Path_77" data-name="Path 77" d="M290.9,101.7h-3l-.6,1.8h-1.4l3-7.8h1.2l3,7.8h-1.4Zm-2.6-1h2.3l-1.1-3.2Z" fill="#fff"/>
      <path id="Path_78" data-name="Path 78" d="M301,101a3.373,3.373,0,0,1-.9,2,2.971,2.971,0,0,1-2.1.7,2.726,2.726,0,0,1-1.6-.4,2.85,2.85,0,0,1-1.1-1.3,3.807,3.807,0,0,1-.4-1.9v-.7a3.807,3.807,0,0,1,.4-1.9,2.85,2.85,0,0,1,1.1-1.3,3.371,3.371,0,0,1,1.7-.5,2.817,2.817,0,0,1,2.1.7,3.117,3.117,0,0,1,.9,2h-1.4c-.1-.6-.2-1-.5-1.2a1.9,1.9,0,0,0-1.2-.4,1.816,1.816,0,0,0-1.4.6,3.312,3.312,0,0,0-.5,1.9v.7a3.312,3.312,0,0,0,.5,1.9,1.561,1.561,0,0,0,1.3.7,1.594,1.594,0,0,0,1.2-.4c.3-.2.4-.6.5-1.2H301Z" fill="#fff"/>
      <path id="Path_79" data-name="Path 79" d="M309.5,101a3.373,3.373,0,0,1-.9,2,2.971,2.971,0,0,1-2.1.7,2.726,2.726,0,0,1-1.6-.4,2.85,2.85,0,0,1-1.1-1.3,3.807,3.807,0,0,1-.4-1.9v-.7a3.807,3.807,0,0,1,.4-1.9,2.85,2.85,0,0,1,1.1-1.3,3.371,3.371,0,0,1,1.7-.5,2.817,2.817,0,0,1,2.1.7,3.117,3.117,0,0,1,.9,2h-1.4c-.1-.6-.2-1-.5-1.2a1.9,1.9,0,0,0-1.2-.4,1.816,1.816,0,0,0-1.4.6,3.312,3.312,0,0,0-.5,1.9v.7a3.312,3.312,0,0,0,.5,1.9,1.561,1.561,0,0,0,1.3.7,1.594,1.594,0,0,0,1.2-.4c.3-.2.4-.6.5-1.2h1.4Z" fill="#fff"/>
      <path id="Path_80" data-name="Path 80" d="M313.5,103.6h-1.4V95.8h1.4Z" fill="#fff"/>
      <path id="Path_81" data-name="Path 81" d="M322.7,103.6h-1.4l-3.5-5.5v5.5h-1.4V95.8h1.4l3.5,5.6V95.8h1.3v7.8Z" fill="#fff"/>
      <path id="Path_82" data-name="Path 82" d="M330.2,100.1H327v2.4h3.8v1.1h-5.1V95.8h5.1v1.1H327V99h3.2Z" fill="#fff"/>
    </g>
    <g id="Group_7" data-name="Group 7">
      <path id="Path_83" data-name="Path 83" d="M67.1,116.6v2.1h-1V113h2.2a2.456,2.456,0,0,1,1.5.5,1.612,1.612,0,0,1,.6,1.3,1.728,1.728,0,0,1-.5,1.3,2.456,2.456,0,0,1-1.5.5H67.1Zm0-.8h1.2a1.549,1.549,0,0,0,.8-.2.908.908,0,0,0,.3-.7.779.779,0,0,0-.3-.7,1.49,1.49,0,0,0-.8-.3H67.1Z" fill="#fff"/>
      <path id="Path_84" data-name="Path 84" d="M75,116.5H73.9v2.2h-1V113h2a2.076,2.076,0,0,1,1.5.4,1.428,1.428,0,0,1,.5,1.3,1.689,1.689,0,0,1-.3,1,1.242,1.242,0,0,1-.8.6l1.3,2.4v.1H76Zm-1.1-.8h1a1.135,1.135,0,0,0,.8-.3.967.967,0,0,0,0-1.4.984.984,0,0,0-.8-.3h-1Z" fill="#fff"/>
      <path id="Path_85" data-name="Path 85" d="M84.1,116a3.653,3.653,0,0,1-.3,1.5,3.915,3.915,0,0,1-.8,1,2.663,2.663,0,0,1-1.2.3,2.133,2.133,0,0,1-1.2-.3,1.649,1.649,0,0,1-.8-1,3.194,3.194,0,0,1-.3-1.4v-.3a3.653,3.653,0,0,1,.3-1.5,2.723,2.723,0,0,1,.8-1,2.663,2.663,0,0,1,1.2-.3,2.375,2.375,0,0,1,1.2.3,2.089,2.089,0,0,1,.8,1,3.653,3.653,0,0,1,.3,1.5Zm-1-.3a1.955,1.955,0,0,0-.4-1.4,1.389,1.389,0,0,0-1-.5,1.231,1.231,0,0,0-1,.5,2.588,2.588,0,0,0-.4,1.4v.3a1.955,1.955,0,0,0,.4,1.4,1.25,1.25,0,0,0,2,0,2.7,2.7,0,0,0,.4-1.5Z" fill="#fff"/>
      <path id="Path_86" data-name="Path 86" d="M88.7,117.5l1.4-4.4h1.1l-2,5.7h-1l-2-5.7h1.1Z" fill="#fff"/>
      <path id="Path_87" data-name="Path 87" d="M96.9,116.2H94.6v1.7h2.7v.8H93.6V113h3.7v.8H94.6v1.6h2.3Z" fill="#fff"/>
      <path id="Path_88" data-name="Path 88" d="M104.3,118.7h-1l-2.5-4v4h-1V113h1l2.5,4.1V113h1Z" fill="#fff"/>
      <path id="Path_89" data-name="Path 89" d="M115.4,118.7h-1v-2.5h-2.5v2.5h-1V113h1v2.4h2.5V113h1Z" fill="#fff"/>
      <path id="Path_90" data-name="Path 90" d="M122.5,113v3.8a1.678,1.678,0,0,1-.6,1.4,1.964,1.964,0,0,1-1.5.5,2.544,2.544,0,0,1-1.6-.5,1.678,1.678,0,0,1-.6-1.4V113h1v3.8a1.061,1.061,0,0,0,1.2,1.2c.8,0,1.1-.4,1.1-1.2V113Z" fill="#fff"/>
      <path id="Path_91" data-name="Path 91" d="M126.5,113l1.6,4.4,1.6-4.4H131v5.7h-1v-1.9l.1-2.5-1.7,4.4h-.7l-1.7-4.4.1,2.5v1.9h-1V113Z" fill="#fff"/>
      <path id="Path_92" data-name="Path 92" d="M137.2,117.4H135l-.5,1.3h-1l2.1-5.7h.9l2.2,5.7h-1Zm-2-.8h1.6l-.8-2.4Z" fill="#fff"/>
      <path id="Path_93" data-name="Path 93" d="M145.5,118.7h-1l-2.5-4v4h-1V113h1l2.5,4.1V113h1Z" fill="#fff"/>
      <path id="Path_94" data-name="Path 94" d="M155.3,117.4h-2.2l-.5,1.3h-1l2.1-5.7h.9l2.2,5.7h-1Zm-1.9-.8H155l-.8-2.4Z" fill="#fff"/>
      <path id="Path_95" data-name="Path 95" d="M159.1,118.7V113h1.7a2.768,2.768,0,0,1,1.3.3,1.789,1.789,0,0,1,.9,1,3.194,3.194,0,0,1,.3,1.4v.3a3.194,3.194,0,0,1-.3,1.4,1.962,1.962,0,0,1-.9.9,3.194,3.194,0,0,1-1.4.3h-1.6Zm1-4.9v4.1h.6a1.656,1.656,0,0,0,1.2-.5,1.955,1.955,0,0,0,.4-1.4v-.3a1.955,1.955,0,0,0-.4-1.4,1.656,1.656,0,0,0-1.2-.5h-.6Z" fill="#fff"/>
      <path id="Path_96" data-name="Path 96" d="M169.4,116.2H167v1.7h2.7v.8H166V113h3.7v.8H167v1.6h2.3v.8Z" fill="#fff"/>
      <path id="Path_97" data-name="Path 97" d="M176.8,118.7h-1l-2.5-4v4h-1V113h1l2.5,4.1V113h1Z" fill="#fff"/>
      <path id="Path_98" data-name="Path 98" d="M184.2,116a3.653,3.653,0,0,1-.3,1.5,3.915,3.915,0,0,1-.8,1,2.663,2.663,0,0,1-1.2.3,2.133,2.133,0,0,1-1.2-.3,1.649,1.649,0,0,1-.8-1,3.194,3.194,0,0,1-.3-1.4v-.3a3.653,3.653,0,0,1,.3-1.5,2.723,2.723,0,0,1,.8-1,2.663,2.663,0,0,1,1.2-.3,2.375,2.375,0,0,1,1.2.3,2.089,2.089,0,0,1,.8,1,3.653,3.653,0,0,1,.3,1.5Zm-1-.3a1.955,1.955,0,0,0-.4-1.4,1.389,1.389,0,0,0-1-.5,1.231,1.231,0,0,0-1,.5,2.588,2.588,0,0,0-.4,1.4v.3a1.955,1.955,0,0,0,.4,1.4,1.25,1.25,0,0,0,2,0,2.7,2.7,0,0,0,.4-1.5Z" fill="#fff"/>
      <path id="Path_99" data-name="Path 99" d="M188.8,117.5l1.4-4.4h1.1l-2,5.7h-1l-2-5.7h1.1Z" fill="#fff"/>
      <path id="Path_100" data-name="Path 100" d="M194.7,118.7h-1V113h1Z" fill="#fff"/>
      <path id="Path_101" data-name="Path 101" d="M199.7,116.5h-1.1v2.2h-1V113h2a2.076,2.076,0,0,1,1.5.4,1.428,1.428,0,0,1,.5,1.3,1.689,1.689,0,0,1-.3,1,1.242,1.242,0,0,1-.8.6l1.3,2.4v.1h-1.1Zm-1.1-.8h1a1.135,1.135,0,0,0,.8-.3.967.967,0,0,0,0-1.4.984.984,0,0,0-.8-.3h-1Z" fill="#fff"/>
      <path id="Path_102" data-name="Path 102" d="M207.5,117.4h-2.2l-.5,1.3h-1l2.1-5.7h.9l2.2,5.7h-1Zm-1.9-.8h1.6l-.8-2.4Z" fill="#fff"/>
      <path id="Path_103" data-name="Path 103" d="M212.4,117.9H215v.8h-3.6V113h1Z" fill="#fff"/>
      <path id="Path_104" data-name="Path 104" d="M223.1,117.5l1.4-4.4h1.1l-2,5.7h-1l-2-5.7h1.1Z" fill="#fff"/>
      <path id="Path_105" data-name="Path 105" d="M231.3,116.2H229v1.7h2.7v.8H228V113h3.7v.8H229v1.6h2.3Z" fill="#fff"/>
      <path id="Path_106" data-name="Path 106" d="M238.5,116.9a2.1,2.1,0,0,1-.7,1.4,2.544,2.544,0,0,1-1.6.5,2.133,2.133,0,0,1-1.2-.3,2.361,2.361,0,0,1-.8-.9,3.194,3.194,0,0,1-.3-1.4v-.5a3.194,3.194,0,0,1,.3-1.4,2.361,2.361,0,0,1,.8-.9,2.663,2.663,0,0,1,1.2-.3,2.456,2.456,0,0,1,1.5.5,2.1,2.1,0,0,1,.7,1.4h-1a1.268,1.268,0,0,0-.4-.9,1.136,1.136,0,0,0-.8-.3,1.231,1.231,0,0,0-1,.5,3.921,3.921,0,0,0-.4,1.4v.5a2.649,2.649,0,0,0,.3,1.4,1.1,1.1,0,0,0,1,.5,1.222,1.222,0,0,0,.9-.3,1.884,1.884,0,0,0,.4-.9h1.1Z" fill="#fff"/>
      <path id="Path_107" data-name="Path 107" d="M245.1,113.8h-1.8v4.9h-1v-4.9h-1.8V113H245v.8Z" fill="#fff"/>
      <path id="Path_108" data-name="Path 108" d="M252,116a3.653,3.653,0,0,1-.3,1.5,3.915,3.915,0,0,1-.8,1,2.663,2.663,0,0,1-1.2.3,2.133,2.133,0,0,1-1.2-.3,1.649,1.649,0,0,1-.8-1,3.194,3.194,0,0,1-.3-1.4v-.3a3.653,3.653,0,0,1,.3-1.5,2.723,2.723,0,0,1,.8-1,2.663,2.663,0,0,1,1.2-.3,2.375,2.375,0,0,1,1.2.3,2.089,2.089,0,0,1,.8,1,3.653,3.653,0,0,1,.3,1.5Zm-1-.3a1.955,1.955,0,0,0-.4-1.4,1.389,1.389,0,0,0-1-.5,1.231,1.231,0,0,0-1,.5,2.588,2.588,0,0,0-.4,1.4v.3a1.955,1.955,0,0,0,.4,1.4,1.25,1.25,0,0,0,2,0,2.7,2.7,0,0,0,.4-1.5Z" fill="#fff"/>
      <path id="Path_109" data-name="Path 109" d="M256.8,116.5h-1.1v2.2h-1V113h2a2.076,2.076,0,0,1,1.5.4,1.428,1.428,0,0,1,.5,1.3,1.69,1.69,0,0,1-.3,1,1.242,1.242,0,0,1-.8.6l1.3,2.4v.1h-1.1Zm-1.1-.8h1a1.135,1.135,0,0,0,.8-.3.967.967,0,0,0,0-1.4.984.984,0,0,0-.8-.3h-1v2Z" fill="#fff"/>
      <path id="Path_110" data-name="Path 110" d="M269,113.8h-1.8v4.9h-1v-4.9h-1.8V113h4.5v.8Z" fill="#fff"/>
      <path id="Path_111" data-name="Path 111" d="M274.7,116.2h-2.3v1.7h2.7v.8h-3.7V113h3.7v.8h-2.7v1.6h2.3Z" fill="#fff"/>
      <path id="Path_112" data-name="Path 112" d="M282,116.9a2.1,2.1,0,0,1-.7,1.4,2.545,2.545,0,0,1-1.6.5,2.133,2.133,0,0,1-1.2-.3,2.361,2.361,0,0,1-.8-.9,3.194,3.194,0,0,1-.3-1.4v-.5a3.194,3.194,0,0,1,.3-1.4,2.361,2.361,0,0,1,.8-.9,2.663,2.663,0,0,1,1.2-.3,2.456,2.456,0,0,1,1.5.5,2.1,2.1,0,0,1,.7,1.4h-1a1.268,1.268,0,0,0-.4-.9,1.136,1.136,0,0,0-.8-.3,1.231,1.231,0,0,0-1,.5,3.921,3.921,0,0,0-.4,1.4v.5a2.649,2.649,0,0,0,.3,1.4,1.1,1.1,0,0,0,1,.5,1.222,1.222,0,0,0,.9-.3,1.884,1.884,0,0,0,.4-.9H282Z" fill="#fff"/>
      <path id="Path_113" data-name="Path 113" d="M289.1,118.7h-1v-2.5h-2.5v2.5h-1V113h1v2.4h2.5V113h1Z" fill="#fff"/>
      <path id="Path_114" data-name="Path 114" d="M296.5,118.7h-1l-2.5-4v4h-1V113h1l2.5,4.1V113h1Z" fill="#fff"/>
      <path id="Path_115" data-name="Path 115" d="M303.9,116a3.653,3.653,0,0,1-.3,1.5,3.916,3.916,0,0,1-.8,1,2.663,2.663,0,0,1-1.2.3,2.133,2.133,0,0,1-1.2-.3,1.649,1.649,0,0,1-.8-1,3.194,3.194,0,0,1-.3-1.4v-.3a3.653,3.653,0,0,1,.3-1.5,2.723,2.723,0,0,1,.8-1,2.663,2.663,0,0,1,1.2-.3,2.375,2.375,0,0,1,1.2.3,2.089,2.089,0,0,1,.8,1,3.653,3.653,0,0,1,.3,1.5Zm-1-.3a1.955,1.955,0,0,0-.4-1.4,1.389,1.389,0,0,0-1-.5,1.231,1.231,0,0,0-1,.5,2.588,2.588,0,0,0-.4,1.4v.3a1.955,1.955,0,0,0,.4,1.4,1.25,1.25,0,0,0,2,0,2.7,2.7,0,0,0,.4-1.5Z" fill="#fff"/>
      <path id="Path_116" data-name="Path 116" d="M307.6,117.9h2.6v.8h-3.6V113h1Z" fill="#fff"/>
      <path id="Path_117" data-name="Path 117" d="M316.9,116a3.653,3.653,0,0,1-.3,1.5,3.916,3.916,0,0,1-.8,1,2.663,2.663,0,0,1-1.2.3,2.133,2.133,0,0,1-1.2-.3,1.649,1.649,0,0,1-.8-1,3.194,3.194,0,0,1-.3-1.4v-.3a3.653,3.653,0,0,1,.3-1.5,2.723,2.723,0,0,1,.8-1,2.663,2.663,0,0,1,1.2-.3,2.375,2.375,0,0,1,1.2.3,2.089,2.089,0,0,1,.8,1,3.653,3.653,0,0,1,.3,1.5Zm-1-.3a1.955,1.955,0,0,0-.4-1.4,1.389,1.389,0,0,0-1-.5,1.231,1.231,0,0,0-1,.5,2.588,2.588,0,0,0-.4,1.4v.3a1.955,1.955,0,0,0,.4,1.4,1.25,1.25,0,0,0,2,0,2.7,2.7,0,0,0,.4-1.5Z" fill="#fff"/>
      <path id="Path_118" data-name="Path 118" d="M323.9,118a1.456,1.456,0,0,1-.9.6,5.019,5.019,0,0,1-1.2.2,2.768,2.768,0,0,1-1.3-.3,1.419,1.419,0,0,1-.8-.9,5.769,5.769,0,0,1-.3-1.4v-.4a2.986,2.986,0,0,1,.6-2,2.06,2.06,0,0,1,1.7-.7,2.456,2.456,0,0,1,1.5.5,2.1,2.1,0,0,1,.7,1.4h-1a1.055,1.055,0,0,0-1.2-1,1.231,1.231,0,0,0-1,.5,3.921,3.921,0,0,0-.4,1.4v.4a1.955,1.955,0,0,0,.4,1.4,1.433,1.433,0,0,0,1.1.5,1.609,1.609,0,0,0,1.1-.3v-1.1h-1.2V116h2.2v2Z" fill="#fff"/>
      <path id="Path_119" data-name="Path 119" d="M328.6,115.7l1.3-2.7H331l-1.9,3.6v2.1h-1v-2.1l-1.9-3.6h1.1Z" fill="#fff"/>
    </g>
  </g>
</svg>
